<?xml version="1.0" encoding="utf-8"?>
<!-- Generator: Adobe Illustrator 21.1.0, SVG Export Plug-In . SVG Version: 6.00 Build 0)  -->
<svg version="1.1" id="Слой_1" xmlns="http://www.w3.org/2000/svg" xmlns:xlink="http://www.w3.org/1999/xlink" x="0px" y="0px"
	 viewBox="0 0 42.2 29" style="enable-background:new 0 0 42.2 29;" xml:space="preserve">
<style type="text/css">
	.st0{fill:#FF0000;}
</style>
<path class="st0" d="M0,29L8.8,0h4.8l4.7,13.8c1,3.1,1.9,6.1,2.6,9.6H21c0.7-3.4,1.6-6.3,2.6-9.5L28,0h4.8l9.4,29H37l-4.1-14.6
	C31.9,11,31.1,8,30.6,5h-0.2c-0.7,2.9-1.5,6-2.6,9.5L23.3,29h-4.4l-4.7-14.8c-1-3.1-1.9-6.2-2.6-9.2h-0.2c-0.5,3-1.3,6-2.2,9.2
	L5.4,29H0z"/>
</svg>
